<svg width="571" height="295" viewBox="0 0 571 295" fill="none" xmlns="http://www.w3.org/2000/svg">
<path d="M181.318 116.048V154.852" stroke="#FF8DF5" stroke-miterlimit="10"/>
<path d="M181.318 70.0271V108.832" stroke="#FF8DF5" stroke-miterlimit="10"/>
<path d="M177.683 112.439H138.609" stroke="#FF8DF5" stroke-miterlimit="10"/>
<path d="M224.025 112.439H184.951" stroke="#FF8DF5" stroke-miterlimit="10"/>
<path d="M178.749 114.991L151.119 142.43" stroke="#FF8DF5" stroke-miterlimit="10"/>
<path d="M211.517 82.4502L183.887 109.887" stroke="#FF8DF5" stroke-miterlimit="10"/>
<path d="M178.749 109.887L151.119 82.4502" stroke="#FF8DF5" stroke-miterlimit="10"/>
<path d="M211.517 142.43L183.887 114.991" stroke="#FF8DF5" stroke-miterlimit="10"/>
<path d="M250.625 116.048V154.852" stroke="#FF8DF5" stroke-miterlimit="10"/>
<path d="M250.625 70.0271V108.832" stroke="#FF8DF5" stroke-miterlimit="10"/>
<path d="M246.988 112.439H207.914" stroke="#FF8DF5" stroke-miterlimit="10"/>
<path d="M293.33 112.439H254.256" stroke="#FF8DF5" stroke-miterlimit="10"/>
<path d="M248.054 114.991L220.424 142.43" stroke="#FF8DF5" stroke-miterlimit="10"/>
<path d="M280.822 82.4502L253.191 109.887" stroke="#FF8DF5" stroke-miterlimit="10"/>
<path d="M248.054 109.887L220.424 82.4502" stroke="#FF8DF5" stroke-miterlimit="10"/>
<path d="M280.822 142.43L253.191 114.991" stroke="#FF8DF5" stroke-miterlimit="10"/>
<path d="M181.318 46.0195V84.8231" stroke="#FF8DF5" stroke-miterlimit="10"/>
<path d="M181.318 0V38.8037" stroke="#FF8DF5" stroke-miterlimit="10"/>
<path d="M177.683 42.4124H138.609" stroke="#FF8DF5" stroke-miterlimit="10"/>
<path d="M224.025 42.4124H184.951" stroke="#FF8DF5" stroke-miterlimit="10"/>
<path d="M178.749 44.9626L151.119 72.4016" stroke="#FF8DF5" stroke-miterlimit="10"/>
<path d="M211.517 12.4216L183.887 39.8606" stroke="#FF8DF5" stroke-miterlimit="10"/>
<path d="M178.749 39.8606L151.119 12.4216" stroke="#FF8DF5" stroke-miterlimit="10"/>
<path d="M211.517 72.4016L183.887 44.9626" stroke="#FF8DF5" stroke-miterlimit="10"/>
<path d="M250.625 46.0195V84.8231" stroke="#FF8DF5" stroke-miterlimit="10"/>
<path d="M250.625 0V38.8037" stroke="#FF8DF5" stroke-miterlimit="10"/>
<path d="M246.988 42.4124H207.914" stroke="#FF8DF5" stroke-miterlimit="10"/>
<path d="M293.33 42.4124H254.256" stroke="#FF8DF5" stroke-miterlimit="10"/>
<path d="M248.054 44.9626L220.424 72.4016" stroke="#FF8DF5" stroke-miterlimit="10"/>
<path d="M280.822 12.4216L253.191 39.8606" stroke="#FF8DF5" stroke-miterlimit="10"/>
<path d="M248.054 39.8606L220.424 12.4216" stroke="#FF8DF5" stroke-miterlimit="10"/>
<path d="M280.822 72.4016L253.191 44.9626" stroke="#FF8DF5" stroke-miterlimit="10"/>
<path d="M42.707 116.048V154.852" stroke="#FF8DF5" stroke-miterlimit="10"/>
<path d="M42.707 70.0271V108.832" stroke="#FF8DF5" stroke-miterlimit="10"/>
<path d="M39.0741 112.439H0" stroke="#FF8DF5" stroke-miterlimit="10"/>
<path d="M85.412 112.439H46.3379" stroke="#FF8DF5" stroke-miterlimit="10"/>
<path d="M40.136 114.991L12.5059 142.43" stroke="#FF8DF5" stroke-miterlimit="10"/>
<path d="M72.9055 82.4502L45.2754 109.887" stroke="#FF8DF5" stroke-miterlimit="10"/>
<path d="M40.136 109.887L12.5059 82.4502" stroke="#FF8DF5" stroke-miterlimit="10"/>
<path d="M72.9055 142.43L45.2754 114.991" stroke="#FF8DF5" stroke-miterlimit="10"/>
<path d="M112.012 116.048V154.852" stroke="#FF8DF5" stroke-miterlimit="10"/>
<path d="M112.012 70.0271V108.832" stroke="#FF8DF5" stroke-miterlimit="10"/>
<path d="M108.379 112.439H69.3047" stroke="#FF8DF5" stroke-miterlimit="10"/>
<path d="M154.719 112.439H115.645" stroke="#FF8DF5" stroke-miterlimit="10"/>
<path d="M109.443 114.991L81.8125 142.43" stroke="#FF8DF5" stroke-miterlimit="10"/>
<path d="M142.21 82.4502L114.58 109.887" stroke="#FF8DF5" stroke-miterlimit="10"/>
<path d="M109.443 109.887L81.8125 82.4502" stroke="#FF8DF5" stroke-miterlimit="10"/>
<path d="M142.21 142.43L114.58 114.991" stroke="#FF8DF5" stroke-miterlimit="10"/>
<path d="M42.707 46.0195V84.8231" stroke="#FF8DF5" stroke-miterlimit="10"/>
<path d="M42.707 0V38.8037" stroke="#FF8DF5" stroke-miterlimit="10"/>
<path d="M39.0741 42.4124H0" stroke="#FF8DF5" stroke-miterlimit="10"/>
<path d="M85.412 42.4124H46.3379" stroke="#FF8DF5" stroke-miterlimit="10"/>
<path d="M40.136 44.9626L12.5059 72.4016" stroke="#FF8DF5" stroke-miterlimit="10"/>
<path d="M72.9055 12.4216L45.2754 39.8606" stroke="#FF8DF5" stroke-miterlimit="10"/>
<path d="M40.136 39.8606L12.5059 12.4216" stroke="#FF8DF5" stroke-miterlimit="10"/>
<path d="M72.9055 72.4016L45.2754 44.9626" stroke="#FF8DF5" stroke-miterlimit="10"/>
<path d="M112.012 46.0195V84.8231" stroke="#FF8DF5" stroke-miterlimit="10"/>
<path d="M112.012 0V38.8037" stroke="#FF8DF5" stroke-miterlimit="10"/>
<path d="M108.379 42.4124H69.3047" stroke="#FF8DF5" stroke-miterlimit="10"/>
<path d="M154.719 42.4124H115.645" stroke="#FF8DF5" stroke-miterlimit="10"/>
<path d="M109.443 44.9626L81.8125 72.4016" stroke="#FF8DF5" stroke-miterlimit="10"/>
<path d="M142.21 12.4216L114.58 39.8606" stroke="#FF8DF5" stroke-miterlimit="10"/>
<path d="M109.443 39.8606L81.8125 12.4216" stroke="#FF8DF5" stroke-miterlimit="10"/>
<path d="M142.21 72.4016L114.58 44.9626" stroke="#FF8DF5" stroke-miterlimit="10"/>
<path d="M181.318 256.196V295" stroke="#FF8DF5" stroke-miterlimit="10"/>
<path d="M181.318 210.177V248.98" stroke="#FF8DF5" stroke-miterlimit="10"/>
<path d="M177.683 252.588H138.609" stroke="#FF8DF5" stroke-miterlimit="10"/>
<path d="M224.025 252.588H184.951" stroke="#FF8DF5" stroke-miterlimit="10"/>
<path d="M178.749 255.139L151.119 282.578" stroke="#FF8DF5" stroke-miterlimit="10"/>
<path d="M211.517 222.598L183.887 250.037" stroke="#FF8DF5" stroke-miterlimit="10"/>
<path d="M178.749 250.037L151.119 222.598" stroke="#FF8DF5" stroke-miterlimit="10"/>
<path d="M211.517 282.578L183.887 255.139" stroke="#FF8DF5" stroke-miterlimit="10"/>
<path d="M250.625 256.196V295" stroke="#FF8DF5" stroke-miterlimit="10"/>
<path d="M250.625 210.177V248.98" stroke="#FF8DF5" stroke-miterlimit="10"/>
<path d="M246.988 252.588H207.914" stroke="#FF8DF5" stroke-miterlimit="10"/>
<path d="M293.33 252.588H254.256" stroke="#FF8DF5" stroke-miterlimit="10"/>
<path d="M248.054 255.139L220.424 282.578" stroke="#FF8DF5" stroke-miterlimit="10"/>
<path d="M280.822 222.598L253.191 250.037" stroke="#FF8DF5" stroke-miterlimit="10"/>
<path d="M248.054 250.037L220.424 222.598" stroke="#FF8DF5" stroke-miterlimit="10"/>
<path d="M280.822 282.578L253.191 255.139" stroke="#FF8DF5" stroke-miterlimit="10"/>
<path d="M181.318 186.169V224.973" stroke="#FF8DF5" stroke-miterlimit="10"/>
<path d="M181.318 140.148V178.952" stroke="#FF8DF5" stroke-miterlimit="10"/>
<path d="M177.683 182.561H138.609" stroke="#FF8DF5" stroke-miterlimit="10"/>
<path d="M224.025 182.561H184.951" stroke="#FF8DF5" stroke-miterlimit="10"/>
<path d="M178.749 185.112L151.119 212.55" stroke="#FF8DF5" stroke-miterlimit="10"/>
<path d="M211.517 152.571L183.887 180.009" stroke="#FF8DF5" stroke-miterlimit="10"/>
<path d="M178.749 180.009L151.119 152.571" stroke="#FF8DF5" stroke-miterlimit="10"/>
<path d="M211.517 212.55L183.887 185.112" stroke="#FF8DF5" stroke-miterlimit="10"/>
<path d="M250.625 186.169V224.973" stroke="#FF8DF5" stroke-miterlimit="10"/>
<path d="M250.625 140.148V178.952" stroke="#FF8DF5" stroke-miterlimit="10"/>
<path d="M246.988 182.561H207.914" stroke="#FF8DF5" stroke-miterlimit="10"/>
<path d="M293.33 182.561H254.256" stroke="#FF8DF5" stroke-miterlimit="10"/>
<path d="M248.054 185.112L220.424 212.55" stroke="#FF8DF5" stroke-miterlimit="10"/>
<path d="M280.822 152.571L253.191 180.009" stroke="#FF8DF5" stroke-miterlimit="10"/>
<path d="M248.054 180.009L220.424 152.571" stroke="#FF8DF5" stroke-miterlimit="10"/>
<path d="M280.822 212.55L253.191 185.112" stroke="#FF8DF5" stroke-miterlimit="10"/>
<path d="M42.707 256.196V295" stroke="#FF8DF5" stroke-miterlimit="10"/>
<path d="M42.707 210.177V248.98" stroke="#FF8DF5" stroke-miterlimit="10"/>
<path d="M39.0741 252.588H0" stroke="#FF8DF5" stroke-miterlimit="10"/>
<path d="M85.412 252.588H46.3379" stroke="#FF8DF5" stroke-miterlimit="10"/>
<path d="M40.136 255.139L12.5059 282.578" stroke="#FF8DF5" stroke-miterlimit="10"/>
<path d="M72.9055 222.598L45.2754 250.037" stroke="#FF8DF5" stroke-miterlimit="10"/>
<path d="M40.136 250.037L12.5059 222.598" stroke="#FF8DF5" stroke-miterlimit="10"/>
<path d="M72.9055 282.578L45.2754 255.139" stroke="#FF8DF5" stroke-miterlimit="10"/>
<path d="M112.012 256.196V295" stroke="#FF8DF5" stroke-miterlimit="10"/>
<path d="M112.012 210.177V248.98" stroke="#FF8DF5" stroke-miterlimit="10"/>
<path d="M108.379 252.588H69.3047" stroke="#FF8DF5" stroke-miterlimit="10"/>
<path d="M154.719 252.588H115.645" stroke="#FF8DF5" stroke-miterlimit="10"/>
<path d="M109.443 255.139L81.8125 282.578" stroke="#FF8DF5" stroke-miterlimit="10"/>
<path d="M142.21 222.598L114.58 250.037" stroke="#FF8DF5" stroke-miterlimit="10"/>
<path d="M109.443 250.037L81.8125 222.598" stroke="#FF8DF5" stroke-miterlimit="10"/>
<path d="M142.21 282.578L114.58 255.139" stroke="#FF8DF5" stroke-miterlimit="10"/>
<path d="M42.707 186.169V224.973" stroke="#FF8DF5" stroke-miterlimit="10"/>
<path d="M42.707 140.148V178.952" stroke="#FF8DF5" stroke-miterlimit="10"/>
<path d="M39.0741 182.561H0" stroke="#FF8DF5" stroke-miterlimit="10"/>
<path d="M85.412 182.561H46.3379" stroke="#FF8DF5" stroke-miterlimit="10"/>
<path d="M40.136 185.112L12.5059 212.55" stroke="#FF8DF5" stroke-miterlimit="10"/>
<path d="M72.9055 152.571L45.2754 180.009" stroke="#FF8DF5" stroke-miterlimit="10"/>
<path d="M40.136 180.009L12.5059 152.571" stroke="#FF8DF5" stroke-miterlimit="10"/>
<path d="M72.9055 212.55L45.2754 185.112" stroke="#FF8DF5" stroke-miterlimit="10"/>
<path d="M112.012 186.169V224.973" stroke="#FF8DF5" stroke-miterlimit="10"/>
<path d="M112.012 140.148V178.952" stroke="#FF8DF5" stroke-miterlimit="10"/>
<path d="M108.379 182.561H69.3047" stroke="#FF8DF5" stroke-miterlimit="10"/>
<path d="M154.719 182.561H115.645" stroke="#FF8DF5" stroke-miterlimit="10"/>
<path d="M109.443 185.112L81.8125 212.55" stroke="#FF8DF5" stroke-miterlimit="10"/>
<path d="M142.21 152.571L114.58 180.009" stroke="#FF8DF5" stroke-miterlimit="10"/>
<path d="M109.443 180.009L81.8125 152.571" stroke="#FF8DF5" stroke-miterlimit="10"/>
<path d="M142.21 212.55L114.58 185.112" stroke="#FF8DF5" stroke-miterlimit="10"/>
<path d="M458.539 116.048V154.852" stroke="#FF8DF5" stroke-miterlimit="10"/>
<path d="M458.539 70.0271V108.832" stroke="#FF8DF5" stroke-miterlimit="10"/>
<path d="M454.904 112.439H415.83" stroke="#FF8DF5" stroke-miterlimit="10"/>
<path d="M501.246 112.439H462.172" stroke="#FF8DF5" stroke-miterlimit="10"/>
<path d="M455.97 114.991L428.34 142.43" stroke="#FF8DF5" stroke-miterlimit="10"/>
<path d="M488.738 82.4502L461.107 109.887" stroke="#FF8DF5" stroke-miterlimit="10"/>
<path d="M455.97 109.887L428.34 82.4502" stroke="#FF8DF5" stroke-miterlimit="10"/>
<path d="M488.738 142.43L461.107 114.991" stroke="#FF8DF5" stroke-miterlimit="10"/>
<path d="M527.844 116.048V154.852" stroke="#FF8DF5" stroke-miterlimit="10"/>
<path d="M527.844 70.0271V108.832" stroke="#FF8DF5" stroke-miterlimit="10"/>
<path d="M524.211 112.439H485.137" stroke="#FF8DF5" stroke-miterlimit="10"/>
<path d="M570.553 112.439H531.479" stroke="#FF8DF5" stroke-miterlimit="10"/>
<path d="M525.277 114.991L497.646 142.43" stroke="#FF8DF5" stroke-miterlimit="10"/>
<path d="M558.044 82.4502L530.414 109.887" stroke="#FF8DF5" stroke-miterlimit="10"/>
<path d="M525.277 109.887L497.646 82.4502" stroke="#FF8DF5" stroke-miterlimit="10"/>
<path d="M558.044 142.43L530.414 114.991" stroke="#FF8DF5" stroke-miterlimit="10"/>
<path d="M458.539 46.0195V84.8231" stroke="#FF8DF5" stroke-miterlimit="10"/>
<path d="M458.539 0V38.8037" stroke="#FF8DF5" stroke-miterlimit="10"/>
<path d="M454.904 42.4124H415.83" stroke="#FF8DF5" stroke-miterlimit="10"/>
<path d="M501.246 42.4124H462.172" stroke="#FF8DF5" stroke-miterlimit="10"/>
<path d="M455.97 44.9626L428.34 72.4016" stroke="#FF8DF5" stroke-miterlimit="10"/>
<path d="M488.738 12.4216L461.107 39.8606" stroke="#FF8DF5" stroke-miterlimit="10"/>
<path d="M455.97 39.8606L428.34 12.4216" stroke="#FF8DF5" stroke-miterlimit="10"/>
<path d="M488.738 72.4016L461.107 44.9626" stroke="#FF8DF5" stroke-miterlimit="10"/>
<path d="M527.844 46.0195V84.8231" stroke="#FF8DF5" stroke-miterlimit="10"/>
<path d="M527.844 0V38.8037" stroke="#FF8DF5" stroke-miterlimit="10"/>
<path d="M524.211 42.4124H485.137" stroke="#FF8DF5" stroke-miterlimit="10"/>
<path d="M570.553 42.4124H531.479" stroke="#FF8DF5" stroke-miterlimit="10"/>
<path d="M525.277 44.9626L497.646 72.4016" stroke="#FF8DF5" stroke-miterlimit="10"/>
<path d="M558.044 12.4216L530.414 39.8606" stroke="#FF8DF5" stroke-miterlimit="10"/>
<path d="M525.277 39.8606L497.646 12.4216" stroke="#FF8DF5" stroke-miterlimit="10"/>
<path d="M558.044 72.4016L530.414 44.9626" stroke="#FF8DF5" stroke-miterlimit="10"/>
<path d="M319.928 116.048V154.852" stroke="#FF8DF5" stroke-miterlimit="10"/>
<path d="M319.928 70.0271V108.832" stroke="#FF8DF5" stroke-miterlimit="10"/>
<path d="M316.295 112.439H277.221" stroke="#FF8DF5" stroke-miterlimit="10"/>
<path d="M362.635 112.439H323.561" stroke="#FF8DF5" stroke-miterlimit="10"/>
<path d="M317.359 114.991L289.729 142.43" stroke="#FF8DF5" stroke-miterlimit="10"/>
<path d="M350.128 82.4502L322.498 109.887" stroke="#FF8DF5" stroke-miterlimit="10"/>
<path d="M317.359 109.887L289.729 82.4502" stroke="#FF8DF5" stroke-miterlimit="10"/>
<path d="M350.128 142.43L322.498 114.991" stroke="#FF8DF5" stroke-miterlimit="10"/>
<path d="M389.234 116.048V154.852" stroke="#FF8DF5" stroke-miterlimit="10"/>
<path d="M389.234 70.0271V108.832" stroke="#FF8DF5" stroke-miterlimit="10"/>
<path d="M385.601 112.439H346.527" stroke="#FF8DF5" stroke-miterlimit="10"/>
<path d="M431.939 112.439H392.865" stroke="#FF8DF5" stroke-miterlimit="10"/>
<path d="M386.665 114.991L359.035 142.43" stroke="#FF8DF5" stroke-miterlimit="10"/>
<path d="M419.433 82.4502L391.803 109.887" stroke="#FF8DF5" stroke-miterlimit="10"/>
<path d="M386.665 109.887L359.035 82.4502" stroke="#FF8DF5" stroke-miterlimit="10"/>
<path d="M419.433 142.43L391.803 114.991" stroke="#FF8DF5" stroke-miterlimit="10"/>
<path d="M319.928 46.0195V84.8231" stroke="#FF8DF5" stroke-miterlimit="10"/>
<path d="M319.928 0V38.8037" stroke="#FF8DF5" stroke-miterlimit="10"/>
<path d="M316.295 42.4124H277.221" stroke="#FF8DF5" stroke-miterlimit="10"/>
<path d="M362.635 42.4124H323.561" stroke="#FF8DF5" stroke-miterlimit="10"/>
<path d="M317.359 44.9626L289.729 72.4016" stroke="#FF8DF5" stroke-miterlimit="10"/>
<path d="M350.128 12.4216L322.498 39.8606" stroke="#FF8DF5" stroke-miterlimit="10"/>
<path d="M317.359 39.8606L289.729 12.4216" stroke="#FF8DF5" stroke-miterlimit="10"/>
<path d="M350.128 72.4016L322.498 44.9626" stroke="#FF8DF5" stroke-miterlimit="10"/>
<path d="M389.234 46.0195V84.8231" stroke="#FF8DF5" stroke-miterlimit="10"/>
<path d="M389.234 0V38.8037" stroke="#FF8DF5" stroke-miterlimit="10"/>
<path d="M385.601 42.4124H346.527" stroke="#FF8DF5" stroke-miterlimit="10"/>
<path d="M431.939 42.4124H392.865" stroke="#FF8DF5" stroke-miterlimit="10"/>
<path d="M386.665 44.9626L359.035 72.4016" stroke="#FF8DF5" stroke-miterlimit="10"/>
<path d="M419.433 12.4216L391.803 39.8606" stroke="#FF8DF5" stroke-miterlimit="10"/>
<path d="M386.665 39.8606L359.035 12.4216" stroke="#FF8DF5" stroke-miterlimit="10"/>
<path d="M419.433 72.4016L391.803 44.9626" stroke="#FF8DF5" stroke-miterlimit="10"/>
<path d="M458.539 256.196V295" stroke="#FF8DF5" stroke-miterlimit="10"/>
<path d="M458.539 210.177V248.98" stroke="#FF8DF5" stroke-miterlimit="10"/>
<path d="M454.904 252.588H415.83" stroke="#FF8DF5" stroke-miterlimit="10"/>
<path d="M501.246 252.588H462.172" stroke="#FF8DF5" stroke-miterlimit="10"/>
<path d="M455.97 255.139L428.34 282.578" stroke="#FF8DF5" stroke-miterlimit="10"/>
<path d="M488.738 222.598L461.107 250.037" stroke="#FF8DF5" stroke-miterlimit="10"/>
<path d="M455.97 250.037L428.34 222.598" stroke="#FF8DF5" stroke-miterlimit="10"/>
<path d="M488.738 282.578L461.107 255.139" stroke="#FF8DF5" stroke-miterlimit="10"/>
<path d="M527.844 256.196V295" stroke="#FF8DF5" stroke-miterlimit="10"/>
<path d="M527.844 210.177V248.98" stroke="#FF8DF5" stroke-miterlimit="10"/>
<path d="M524.211 252.588H485.137" stroke="#FF8DF5" stroke-miterlimit="10"/>
<path d="M570.553 252.588H531.479" stroke="#FF8DF5" stroke-miterlimit="10"/>
<path d="M525.277 255.139L497.646 282.578" stroke="#FF8DF5" stroke-miterlimit="10"/>
<path d="M558.044 222.598L530.414 250.037" stroke="#FF8DF5" stroke-miterlimit="10"/>
<path d="M525.277 250.037L497.646 222.598" stroke="#FF8DF5" stroke-miterlimit="10"/>
<path d="M558.044 282.578L530.414 255.139" stroke="#FF8DF5" stroke-miterlimit="10"/>
<path d="M458.539 186.169V224.973" stroke="#FF8DF5" stroke-miterlimit="10"/>
<path d="M458.539 140.148V178.952" stroke="#FF8DF5" stroke-miterlimit="10"/>
<path d="M454.904 182.561H415.83" stroke="#FF8DF5" stroke-miterlimit="10"/>
<path d="M501.246 182.561H462.172" stroke="#FF8DF5" stroke-miterlimit="10"/>
<path d="M455.97 185.112L428.34 212.55" stroke="#FF8DF5" stroke-miterlimit="10"/>
<path d="M488.738 152.571L461.107 180.009" stroke="#FF8DF5" stroke-miterlimit="10"/>
<path d="M455.97 180.009L428.34 152.571" stroke="#FF8DF5" stroke-miterlimit="10"/>
<path d="M488.738 212.55L461.107 185.112" stroke="#FF8DF5" stroke-miterlimit="10"/>
<path d="M527.844 186.169V224.973" stroke="#FF8DF5" stroke-miterlimit="10"/>
<path d="M527.844 140.148V178.952" stroke="#FF8DF5" stroke-miterlimit="10"/>
<path d="M524.211 182.561H485.137" stroke="#FF8DF5" stroke-miterlimit="10"/>
<path d="M570.553 182.561H531.479" stroke="#FF8DF5" stroke-miterlimit="10"/>
<path d="M525.277 185.112L497.646 212.55" stroke="#FF8DF5" stroke-miterlimit="10"/>
<path d="M558.044 152.571L530.414 180.009" stroke="#FF8DF5" stroke-miterlimit="10"/>
<path d="M525.277 180.009L497.646 152.571" stroke="#FF8DF5" stroke-miterlimit="10"/>
<path d="M558.044 212.55L530.414 185.112" stroke="#FF8DF5" stroke-miterlimit="10"/>
<path d="M319.928 256.196V295" stroke="#FF8DF5" stroke-miterlimit="10"/>
<path d="M319.928 210.177V248.98" stroke="#FF8DF5" stroke-miterlimit="10"/>
<path d="M316.295 252.588H277.221" stroke="#FF8DF5" stroke-miterlimit="10"/>
<path d="M362.635 252.588H323.561" stroke="#FF8DF5" stroke-miterlimit="10"/>
<path d="M317.359 255.139L289.729 282.578" stroke="#FF8DF5" stroke-miterlimit="10"/>
<path d="M350.128 222.598L322.498 250.037" stroke="#FF8DF5" stroke-miterlimit="10"/>
<path d="M317.359 250.037L289.729 222.598" stroke="#FF8DF5" stroke-miterlimit="10"/>
<path d="M350.128 282.578L322.498 255.139" stroke="#FF8DF5" stroke-miterlimit="10"/>
<path d="M389.234 256.196V295" stroke="#FF8DF5" stroke-miterlimit="10"/>
<path d="M389.234 210.177V248.98" stroke="#FF8DF5" stroke-miterlimit="10"/>
<path d="M385.601 252.588H346.527" stroke="#FF8DF5" stroke-miterlimit="10"/>
<path d="M431.939 252.588H392.865" stroke="#FF8DF5" stroke-miterlimit="10"/>
<path d="M386.665 255.139L359.035 282.578" stroke="#FF8DF5" stroke-miterlimit="10"/>
<path d="M419.433 222.598L391.803 250.037" stroke="#FF8DF5" stroke-miterlimit="10"/>
<path d="M386.665 250.037L359.035 222.598" stroke="#FF8DF5" stroke-miterlimit="10"/>
<path d="M419.433 282.578L391.803 255.139" stroke="#FF8DF5" stroke-miterlimit="10"/>
<path d="M319.928 186.169V224.973" stroke="#FF8DF5" stroke-miterlimit="10"/>
<path d="M319.928 140.148V178.952" stroke="#FF8DF5" stroke-miterlimit="10"/>
<path d="M316.295 182.561H277.221" stroke="#FF8DF5" stroke-miterlimit="10"/>
<path d="M362.635 182.561H323.561" stroke="#FF8DF5" stroke-miterlimit="10"/>
<path d="M317.359 185.112L289.729 212.55" stroke="#FF8DF5" stroke-miterlimit="10"/>
<path d="M350.128 152.571L322.498 180.009" stroke="#FF8DF5" stroke-miterlimit="10"/>
<path d="M317.359 180.009L289.729 152.571" stroke="#FF8DF5" stroke-miterlimit="10"/>
<path d="M350.128 212.55L322.498 185.112" stroke="#FF8DF5" stroke-miterlimit="10"/>
<path d="M389.234 186.169V224.973" stroke="#FF8DF5" stroke-miterlimit="10"/>
<path d="M389.234 140.148V178.952" stroke="#FF8DF5" stroke-miterlimit="10"/>
<path d="M385.601 182.561H346.527" stroke="#FF8DF5" stroke-miterlimit="10"/>
<path d="M431.939 182.561H392.865" stroke="#FF8DF5" stroke-miterlimit="10"/>
<path d="M386.665 185.112L359.035 212.55" stroke="#FF8DF5" stroke-miterlimit="10"/>
<path d="M419.433 152.571L391.803 180.009" stroke="#FF8DF5" stroke-miterlimit="10"/>
<path d="M386.665 180.009L359.035 152.571" stroke="#FF8DF5" stroke-miterlimit="10"/>
<path d="M419.433 212.55L391.803 185.112" stroke="#FF8DF5" stroke-miterlimit="10"/>
</svg>
