<?xml version="1.0" standalone="no"?>
<!DOCTYPE svg PUBLIC "-//W3C//DTD SVG 20010904//EN"
 "http://www.w3.org/TR/2001/REC-SVG-20010904/DTD/svg10.dtd">
<svg version="1.0" xmlns="http://www.w3.org/2000/svg"
 width="326.000000pt" height="326.000000pt" viewBox="0 0 326.000000 326.000000"
 preserveAspectRatio="xMidYMid meet">
<metadata>
Created by potrace 1.14, written by Peter Selinger 2001-2017
</metadata>
<g transform="translate(0.000000,326.000000) scale(0.100000,-0.100000)"
fill="#000000" stroke="none">
<path d="M1490 2620 c0 -352 -2 -640 -5 -640 -3 0 -208 203 -456 451 l-451
451 -100 -100 -100 -100 453 -453 454 -454 -643 -3 -642 -2 0 -140 0 -140 645
0 645 0 -456 -456 -456 -456 98 -99 c54 -55 99 -99 100 -99 2 0 207 205 458
456 l456 456 0 -646 0 -646 140 0 140 0 0 645 0 645 456 -456 456 -456 99 98
c55 54 99 99 99 100 0 1 -202 204 -450 452 -247 248 -450 453 -450 456 0 3
288 6 640 6 l640 0 0 140 0 140 -646 0 -646 0 457 457 457 456 -100 100 -100
99 -451 -451 c-248 -248 -453 -451 -456 -451 -3 0 -5 288 -5 640 l0 640 -140
0 -140 0 0 -640z m209 -720 l71 71 0 -100 0 -100 97 -3 97 -3 -67 -66 -67 -66
70 -71 70 -72 -100 0 -99 0 -3 -97 -3 -97 -68 67 -68 66 -67 -65 -67 -64 -3
95 -3 95 -94 0 c-52 0 -95 2 -95 5 0 2 29 34 65 70 l65 66 -71 70 -70 69 100
0 101 0 0 101 0 101 69 -71 70 -72 70 71z"/>
</g>
</svg>
