<svg width="20" height="20" viewBox="0 0 20 20" fill="none" xmlns="http://www.w3.org/2000/svg">
<path d="M10.6195 11.8151V19.55H8.93176V11.8112L9.77563 10.9712L10.6195 11.8151Z" fill="#FF8DF5"/>
<path d="M10.6195 0V7.73787L9.77563 8.58173L8.93176 7.73787V0H10.6195Z" fill="#FF8DF5"/>
<path d="M7.73742 10.6185H8.93024V11.8114L3.45912 17.2834L2.2663 16.0906L7.73742 10.6185Z" fill="#FF8DF5"/>
<path d="M17.2821 3.45967L11.8071 8.93465H10.6172V7.73797L16.0893 2.26685L17.2821 3.45967Z" fill="#FF8DF5"/>
<path d="M17.2828 16.0935L16.0899 17.2863L10.6179 11.8152V10.6185H11.8107L17.2828 16.0935Z" fill="#FF8DF5"/>
<path d="M3.45845 2.26672L8.92957 7.73784V8.93453H7.74061L2.26562 3.45954L3.45845 2.26672Z" fill="#FF8DF5"/>
<path d="M19.5525 10.6183H11.8108L10.9669 9.77445L11.8079 8.93445H19.5496L19.5525 10.6183Z" fill="#FF8DF5"/>
<path d="M7.74173 8.93457L8.58173 9.77457L7.73787 10.6184H0V8.93457H7.74173Z" fill="#FF8DF5"/>
</svg>
